<svg id="visual" viewBox="0 0 900 600" width="900" height="600" xmlns="http://www.w3.org/2000/svg" xmlns:xlink="http://www.w3.org/1999/xlink" version="1.1"><path d="M0 163L15 165C30 167 60 171 90 177C120 183 150 191 180 183C210 175 240 151 270 149C300 147 330 167 360 189C390 211 420 235 450 234C480 233 510 207 540 198C570 189 600 197 630 200C660 203 690 201 720 189C750 177 780 155 810 152C840 149 870 165 885 173L900 181L900 0L885 0C870 0 840 0 810 0C780 0 750 0 720 0C690 0 660 0 630 0C600 0 570 0 540 0C510 0 480 0 450 0C420 0 390 0 360 0C330 0 300 0 270 0C240 0 210 0 180 0C150 0 120 0 90 0C60 0 30 0 15 0L0 0Z" fill="#4d4d4e"></path><path d="M0 271L15 268C30 265 60 259 90 265C120 271 150 289 180 277C210 265 240 223 270 216C300 209 330 237 360 264C390 291 420 317 450 316C480 315 510 287 540 281C570 275 600 291 630 299C660 307 690 307 720 294C750 281 780 255 810 252C840 249 870 269 885 279L900 289L900 179L885 171C870 163 840 147 810 150C780 153 750 175 720 187C690 199 660 201 630 198C600 195 570 187 540 196C510 205 480 231 450 232C420 233 390 209 360 187C330 165 300 145 270 147C240 149 210 173 180 181C150 189 120 181 90 175C60 169 30 165 15 163L0 161Z" fill="#3b3b3b"></path><path d="M0 367L15 374C30 381 60 395 90 395C120 395 150 381 180 367C210 353 240 339 270 338C300 337 330 349 360 363C390 377 420 393 450 391C480 389 510 369 540 372C570 375 600 401 630 409C660 417 690 407 720 389C750 371 780 345 810 341C840 337 870 355 885 364L900 373L900 287L885 277C870 267 840 247 810 250C780 253 750 279 720 292C690 305 660 305 630 297C600 289 570 273 540 279C510 285 480 313 450 314C420 315 390 289 360 262C330 235 300 207 270 214C240 221 210 263 180 275C150 287 120 269 90 263C60 257 30 263 15 266L0 269Z" fill="#292929"></path><path d="M0 505L15 512C30 519 60 533 90 540C120 547 150 547 180 540C210 533 240 519 270 514C300 509 330 513 360 519C390 525 420 533 450 532C480 531 510 521 540 518C570 515 600 519 630 526C660 533 690 543 720 544C750 545 780 537 810 537C840 537 870 545 885 549L900 553L900 371L885 362C870 353 840 335 810 339C780 343 750 369 720 387C690 405 660 415 630 407C600 399 570 373 540 370C510 367 480 387 450 389C420 391 390 375 360 361C330 347 300 335 270 336C240 337 210 351 180 365C150 379 120 393 90 393C60 393 30 379 15 372L0 365Z" fill="#181818"></path><path d="M0 601L15 601C30 601 60 601 90 601C120 601 150 601 180 601C210 601 240 601 270 601C300 601 330 601 360 601C390 601 420 601 450 601C480 601 510 601 540 601C570 601 600 601 630 601C660 601 690 601 720 601C750 601 780 601 810 601C840 601 870 601 885 601L900 601L900 551L885 547C870 543 840 535 810 535C780 535 750 543 720 542C690 541 660 531 630 524C600 517 570 513 540 516C510 519 480 529 450 530C420 531 390 523 360 517C330 511 300 507 270 512C240 517 210 531 180 538C150 545 120 545 90 538C60 531 30 517 15 510L0 503Z" fill="#000000"></path></svg>