<svg id="visual" viewBox="0 0 960 540" width="960" height="540" xmlns="http://www.w3.org/2000/svg" xmlns:xlink="http://www.w3.org/1999/xlink" version="1.1"><path d="M0 125L17.8 124.2C35.7 123.3 71.3 121.7 106.8 116.3C142.3 111 177.7 102 213.2 99.3C248.7 96.7 284.3 100.3 320 103.8C355.7 107.3 391.3 110.7 426.8 107.8C462.3 105 497.7 96 533.2 90.7C568.7 85.3 604.3 83.7 640 89.2C675.7 94.7 711.3 107.3 746.8 102.8C782.3 98.3 817.7 76.7 853.2 74C888.7 71.3 924.3 87.7 942.2 95.8L960 104L960 0L942.2 0C924.3 0 888.7 0 853.2 0C817.7 0 782.3 0 746.8 0C711.3 0 675.7 0 640 0C604.3 0 568.7 0 533.2 0C497.7 0 462.3 0 426.8 0C391.3 0 355.7 0 320 0C284.3 0 248.7 0 213.2 0C177.7 0 142.3 0 106.8 0C71.3 0 35.7 0 17.8 0L0 0Z" fill="#87d257"></path><path d="M0 244L17.8 253C35.7 262 71.3 280 106.8 282.7C142.3 285.3 177.7 272.7 213.2 258.3C248.7 244 284.3 228 320 235.2C355.7 242.3 391.3 272.7 426.8 270.8C462.3 269 497.7 235 533.2 216.2C568.7 197.3 604.3 193.7 640 207.2C675.7 220.7 711.3 251.3 746.8 258.5C782.3 265.7 817.7 249.3 853.2 243.8C888.7 238.3 924.3 243.7 942.2 246.3L960 249L960 102L942.2 93.8C924.3 85.7 888.7 69.3 853.2 72C817.7 74.7 782.3 96.3 746.8 100.8C711.3 105.3 675.7 92.7 640 87.2C604.3 81.7 568.7 83.3 533.2 88.7C497.7 94 462.3 103 426.8 105.8C391.3 108.7 355.7 105.3 320 101.8C284.3 98.3 248.7 94.7 213.2 97.3C177.7 100 142.3 109 106.8 114.3C71.3 119.7 35.7 121.3 17.8 122.2L0 123Z" fill="#739d3b"></path><path d="M0 401L17.8 405.5C35.7 410 71.3 419 106.8 421.7C142.3 424.3 177.7 420.7 213.2 413.3C248.7 406 284.3 395 320 394C355.7 393 391.3 402 426.8 402C462.3 402 497.7 393 533.2 392.2C568.7 391.3 604.3 398.7 640 402.3C675.7 406 711.3 406 746.8 399.7C782.3 393.3 817.7 380.7 853.2 386C888.7 391.3 924.3 414.7 942.2 426.3L960 438L960 247L942.2 244.3C924.3 241.7 888.7 236.3 853.2 241.8C817.7 247.3 782.3 263.7 746.8 256.5C711.3 249.3 675.7 218.7 640 205.2C604.3 191.7 568.7 195.3 533.2 214.2C497.7 233 462.3 267 426.8 268.8C391.3 270.7 355.7 240.3 320 233.2C284.3 226 248.7 242 213.2 256.3C177.7 270.7 142.3 283.3 106.8 280.7C71.3 278 35.7 260 17.8 251L0 242Z" fill="#586b25"></path><path d="M0 487L17.8 488.8C35.7 490.7 71.3 494.3 106.8 495.2C142.3 496 177.7 494 213.2 492.2C248.7 490.3 284.3 488.7 320 487C355.7 485.3 391.3 483.7 426.8 482.8C462.3 482 497.7 482 533.2 484.7C568.7 487.3 604.3 492.7 640 489C675.7 485.3 711.3 472.7 746.8 465.5C782.3 458.3 817.7 456.7 853.2 463.8C888.7 471 924.3 487 942.2 495L960 503L960 436L942.2 424.3C924.3 412.7 888.7 389.3 853.2 384C817.7 378.7 782.3 391.3 746.8 397.7C711.3 404 675.7 404 640 400.3C604.3 396.7 568.7 389.3 533.2 390.2C497.7 391 462.3 400 426.8 400C391.3 400 355.7 391 320 392C284.3 393 248.7 404 213.2 411.3C177.7 418.7 142.3 422.3 106.8 419.7C71.3 417 35.7 408 17.8 403.5L0 399Z" fill="#393e15"></path><path d="M0 541L17.8 541C35.7 541 71.3 541 106.8 541C142.3 541 177.7 541 213.2 541C248.7 541 284.3 541 320 541C355.7 541 391.3 541 426.8 541C462.3 541 497.7 541 533.2 541C568.7 541 604.3 541 640 541C675.7 541 711.3 541 746.8 541C782.3 541 817.7 541 853.2 541C888.7 541 924.3 541 942.2 541L960 541L960 501L942.2 493C924.3 485 888.7 469 853.2 461.8C817.7 454.7 782.3 456.3 746.8 463.5C711.3 470.7 675.7 483.3 640 487C604.3 490.7 568.7 485.3 533.2 482.7C497.7 480 462.3 480 426.8 480.8C391.3 481.7 355.7 483.3 320 485C284.3 486.7 248.7 488.3 213.2 490.2C177.7 492 142.3 494 106.8 493.2C71.3 492.3 35.7 488.7 17.8 486.8L0 485Z" fill="#191700"></path></svg>