<svg id="visual" viewBox="0 0 1080 200" width="1080" height="200" xmlns="http://www.w3.org/2000/svg" xmlns:xlink="http://www.w3.org/1999/xlink" version="1.1"><rect x="0" y="0" width="1080" height="200" fill="#fce6ce"></rect><path d="M0 139L10.7 126C21.3 113 42.7 87 63.8 72.5C85 58 106 55 127.2 72.7C148.3 90.3 169.7 128.7 190.8 144.3C212 160 233 153 254.2 138.2C275.3 123.3 296.7 100.7 317.8 82.3C339 64 360 50 381.2 50.5C402.3 51 423.7 66 444.8 82.2C466 98.3 487 115.7 508.2 117C529.3 118.3 550.7 103.7 571.8 109.5C593 115.3 614 141.7 635.2 147C656.3 152.3 677.7 136.7 698.8 127.5C720 118.3 741 115.7 762.2 120.2C783.3 124.7 804.7 136.3 825.8 139C847 141.7 868 135.3 889.2 126.3C910.3 117.3 931.7 105.7 952.8 111.5C974 117.3 995 140.7 1016.2 133.3C1037.3 126 1058.7 88 1069.3 69L1080 50L1080 201L1069.3 201C1058.7 201 1037.3 201 1016.2 201C995 201 974 201 952.8 201C931.7 201 910.3 201 889.2 201C868 201 847 201 825.8 201C804.7 201 783.3 201 762.2 201C741 201 720 201 698.8 201C677.7 201 656.3 201 635.2 201C614 201 593 201 571.8 201C550.7 201 529.3 201 508.2 201C487 201 466 201 444.8 201C423.7 201 402.3 201 381.2 201C360 201 339 201 317.8 201C296.7 201 275.3 201 254.2 201C233 201 212 201 190.8 201C169.7 201 148.3 201 127.2 201C106 201 85 201 63.8 201C42.7 201 21.3 201 10.7 201L0 201Z" fill="#f4d8b2" stroke-linecap="round" stroke-linejoin="miter"></path></svg>