<svg id="visual" viewBox="0 0 1080 200" width="1080" height="200" xmlns="http://www.w3.org/2000/svg" xmlns:xlink="http://www.w3.org/1999/xlink" version="1.1"><rect x="0" y="0" width="1080" height="200" fill="#ffd69d"></rect><path d="M0 146L10.7 130.5C21.3 115 42.7 84 63.8 86.3C85 88.7 106 124.3 127.2 142.2C148.3 160 169.7 160 190.8 148.7C212 137.3 233 114.7 254.2 114C275.3 113.3 296.7 134.7 317.8 130.8C339 127 360 98 381.2 82.3C402.3 66.7 423.7 64.3 444.8 70C466 75.7 487 89.3 508.2 101.3C529.3 113.3 550.7 123.7 571.8 133.8C593 144 614 154 635.2 151.5C656.3 149 677.7 134 698.8 119C720 104 741 89 762.2 78.3C783.3 67.7 804.7 61.3 825.8 75C847 88.7 868 122.3 889.2 140.8C910.3 159.3 931.7 162.7 952.8 153.2C974 143.7 995 121.3 1016.2 107.7C1037.3 94 1058.7 89 1069.3 86.5L1080 84L1080 201L1069.3 201C1058.7 201 1037.3 201 1016.2 201C995 201 974 201 952.8 201C931.7 201 910.3 201 889.2 201C868 201 847 201 825.8 201C804.7 201 783.3 201 762.2 201C741 201 720 201 698.8 201C677.7 201 656.3 201 635.2 201C614 201 593 201 571.8 201C550.7 201 529.3 201 508.2 201C487 201 466 201 444.8 201C423.7 201 402.3 201 381.2 201C360 201 339 201 317.8 201C296.7 201 275.3 201 254.2 201C233 201 212 201 190.8 201C169.7 201 148.3 201 127.2 201C106 201 85 201 63.8 201C42.7 201 21.3 201 10.7 201L0 201Z" fill="#fffc9d" stroke-linecap="round" stroke-linejoin="miter"></path></svg>