<svg id="visual" viewBox="0 0 1080 200" width="1080" height="200" xmlns="http://www.w3.org/2000/svg" xmlns:xlink="http://www.w3.org/1999/xlink" version="1.1"><rect x="0" y="0" width="1080" height="200" fill="#f4d8b2"></rect><path d="M0 33L10.7 42C21.3 51 42.7 69 63.8 75.8C85 82.7 106 78.3 127.2 90C148.3 101.7 169.7 129.3 190.8 132.2C212 135 233 113 254.2 106.2C275.3 99.3 296.7 107.7 317.8 113.7C339 119.7 360 123.3 381.2 117.3C402.3 111.3 423.7 95.7 444.8 91C466 86.3 487 92.7 508.2 106.2C529.3 119.7 550.7 140.3 571.8 140C593 139.7 614 118.3 635.2 99.3C656.3 80.3 677.7 63.7 698.8 68C720 72.3 741 97.7 762.2 106.8C783.3 116 804.7 109 825.8 93.5C847 78 868 54 889.2 60.8C910.3 67.7 931.7 105.3 952.8 111.3C974 117.3 995 91.7 1016.2 91.5C1037.3 91.3 1058.7 116.7 1069.3 129.3L1080 142L1080 201L1069.3 201C1058.7 201 1037.3 201 1016.2 201C995 201 974 201 952.8 201C931.7 201 910.3 201 889.2 201C868 201 847 201 825.8 201C804.7 201 783.3 201 762.2 201C741 201 720 201 698.8 201C677.7 201 656.3 201 635.2 201C614 201 593 201 571.8 201C550.7 201 529.3 201 508.2 201C487 201 466 201 444.8 201C423.7 201 402.3 201 381.2 201C360 201 339 201 317.8 201C296.7 201 275.3 201 254.2 201C233 201 212 201 190.8 201C169.7 201 148.3 201 127.2 201C106 201 85 201 63.8 201C42.7 201 21.3 201 10.7 201L0 201Z" fill="#ffd69d" stroke-linecap="round" stroke-linejoin="miter"></path></svg>